# xmcd
#
# Track frame offsets:
#	150
#	12008
#	23464
#	37008
#	49618
#	64072
#	74974
#	92378
#	107640
#	119685
#	133855
#	144762
#	155693
#	169939
#	186094
#	201810
#	212530
#	227787
#	241144
#	254760
#
# Disc length: 3586 seconds
#
# Revision: 1
# Processed by: cddbd v1.4PL0 Copyright (c) Steve Scherf et al.
# Submitted via: audiograbber 1.81.01
#
DISCID=1c0e0014
DTITLE=Kenny Rogers - For The Good Times - CD2
DYEAR=1900
DGENRE=
TTITLE0=What Am I Gonna Do
TTITLE1=Hurry Up Love
TTITLE2=But You Know That I Love You
TTITLE3=Shadow In The Corner Of Your Mind
TTITLE4=It's Raining In My Mind
TTITLE5=Homemade Lies
TTITLE6=Something's Burning
TTITLE7=Tell It All Brother
TTITLE8=Calico Silver
TTITLE9=Molly
TTITLE10=We All Got To Help Each Other
TTITLE11=She Even Woke Me Up To Say Goodbye
TTITLE12=Sunshine
TTITLE13=I Found A Reason
TTITLE14=My Washington Woman
TTITLE15=Ticket To Nowhere
TTITLE16=Conditions (Just Dropped In)
TTITLE17=Run Thru Your Mind
TTITLE18=Sleep Comes Easy
TTITLE19=Loser
EXTD=
EXTT0=
EXTT1=
EXTT2=
EXTT3=
EXTT4=
EXTT5=
EXTT6=
EXTT7=
EXTT8=
EXTT9=
EXTT10=
EXTT11=
EXTT12=
EXTT13=
EXTT14=
EXTT15=
EXTT16=
EXTT17=
EXTT18=
EXTT19=
PLAYORDER=
